<svg xmlns="http://www.w3.org/2000/svg" viewBox="0 0 1920 1080" fill="none" role="img" aria-label="Hafriyat sahas? arka plan">
  <defs>
    <linearGradient id="sky" x1="0" y1="0" x2="0" y2="1">
      <stop offset="0%" stop-color="#fffdf5"/>
      <stop offset="55%" stop-color="#faf8f2"/>
      <stop offset="100%" stop-color="#f5f2ea"/>
    </linearGradient>
    <linearGradient id="ground" x1="0" y1="0" x2="1" y2="0">
      <stop offset="0%" stop-color="#f0ebe3"/>
      <stop offset="100%" stop-color="#fafaf7"/>
    </linearGradient>
    <pattern id="grid" width="80" height="80" patternUnits="userSpaceOnUse">
      <path d="M 80 0 L 0 0 0 80" fill="none" stroke="#f5a020" stroke-width="0.5" opacity="0.08"/>
    </pattern>
  </defs>

  <rect width="1920" height="1080" fill="url(#sky)"/>
  <rect y="620" width="1920" height="460" fill="url(#ground)"/>
  <rect width="1920" height="1080" fill="url(#grid)"/>

  <path d="M0 620 L120 580 L280 610 L420 560 L580 600 L760 540 L920 590 L1100 530 L1280 580 L1460 520 L1620 570 L1780 540 L1920 580 L1920 1080 L0 1080 Z" fill="#ece8e1" opacity="0.7"/>
  <rect x="1380" y="430" width="180" height="140" fill="#ffffff" opacity="0.85" stroke="#ece8e1" stroke-width="2"/>
  <rect x="1420" y="470" width="40" height="30" fill="#f5a020" opacity="0.2"/>
  <rect x="1480" y="470" width="40" height="30" fill="#f5a020" opacity="0.2"/>

  <ellipse cx="520" cy="760" rx="340" ry="90" fill="#e8e0d4" opacity="0.9"/>
  <ellipse cx="480" cy="740" rx="220" ry="55" fill="#f5a020" opacity="0.15"/>
  <path d="M260 700 Q520 620 780 700 L780 820 L260 820 Z" fill="#f0ebe3" opacity="0.95"/>

  <g opacity="0.25" transform="translate(1180 590)">
    <rect x="0" y="60" width="180" height="24" rx="4" fill="#f5a020"/>
    <rect x="30" y="20" width="100" height="44" rx="4" fill="#ece8e1"/>
    <path d="M130 40 L220 20 L280 10" stroke="#f5a020" stroke-width="6" stroke-linecap="round"/>
  </g>

  <ellipse cx="1600" cy="200" rx="420" ry="280" fill="#f5a020" opacity="0.08"/>
</svg>
